{"title":"Blood Night The Legend Of Mary Hatchet 2009 BRRip Feel-Free","uid":5888037,"size":1225411102,"categoryP":"video","categoryS":"movies","magnet":"?xt=urn:btih:6342dc6fd18d81200e0226162b763f217648316e&amp;dn=Blood+Night+The+Legend+Of+Mary+Hatchet+2009+BRRip+Feel-Free&amp;tr=udp%3A%2F%2Ftracker.openbittorrent.com%3A80&amp;tr=udp%3A%2F%2Fopen.demonii.com%3A1337&amp;tr=udp%3A%2F%2Ftracker.coppersurfer.tk%3A6969&amp;tr=udp%3A%2F%2Fexodus.desync.com%3A6969","seeders":1,"leechers":0,"uploader":"neon","files":-1,"time":1287133227,"description":"A group of teenagers celebrating the anniversary of the death of a local axe murderer suddenly find themselves face to face with the realities of this haunting urban legend\n\nGenre: Horror | Thriller\nLanguage:English\n &lt;a href=&quot; http://www.imdb.com/title/tt1161404/&quot; rel=&quot;nofollow&quot; target=&quot;_NEW&quot;&gt; http://www.imdb.com/title/tt1161404/&lt;/a&gt;\nSource: 720p BluRay x264-aAF\n &lt;a href=&quot;\nhttp://www.starshare.ro/bitbucket/vlcsnap2010-10-15-02h43m24s1.jpg&quot; rel=&quot;nofollow&quot; target=&quot;_NEW&quot;&gt;\nhttp://www.starshare.ro/bitbucket/vlcsnap2010-10-15-02h43m24s1.jpg&lt;/a&gt;\n &lt;a href=&quot;\nhttp://www.starshare.ro/bitbucket/vlcsnap2010-10-15-02h45m06s20.jpg&quot; rel=&quot;nofollow&quot; target=&quot;_NEW&quot;&gt;\nhttp://www.starshare.ro/bitbucket/vlcsnap2010-10-15-02h45m06s20.jpg&lt;/a&gt;\n &lt;a href=&quot;\nhttp://www.starshare.ro/bitbucket/vlcsnap2010-10-15-02h44m13s240.jpg&quot; rel=&quot;nofollow&quot; target=&quot;_NEW&quot;&gt;\nhttp://www.starshare.ro/bitbucket/vlcsnap2010-10-15-02h44m13s240.jpg&lt;/a&gt;\n &lt;a href=&quot;\nhttp://www.youtube.com/watch?v=j7Ztc9JMy9w&amp;feature=player_embedded&quot; rel=&quot;nofollow&quot; target=&quot;_NEW&quot;&gt;\nhttp://www.youtube.com/watch?v=j7Ztc9JMy9w&amp;feature=player_embedded&lt;/a&gt;\n\nGeneral\nComplete name :Blood.Night.The.Legend.Of.Mary.Hatchet.2009.BRRip.XviD.Feel-Free\nFormat : AVI\nFormat/Info : Audio Video Interleave\nFile size : 1.14 GiB\nDuration : 1h 24mn\nOverall bit rate : 1 935 Kbps\nVideo #0\nMuxing mode : Packed bitstream\nCodec ID : XVID\nCodec ID/Hint : XviD\nDuration : 1h 24mn\nBit rate : 1 477 Kbps\nWidth : 720 pixels\nHeight : 304 pixels\nDisplay aspect ratio : 2.35:1\nFrame rate : 23.976 fps\nResolution : 24 bits\nColorimetry : 4:2:0\nScan type : Progressive\nBits/(Pixel*Frame) : 0.282\nStream size : 892 MiB (76%)\nWriting library : XviD 1.2.1 (UTC 2008-12-04)\nAudio #1\nID : 1\nFormat : AC-3\nFormat/Info : Audio Coding 3\nCodec ID : 2000\nDuration : 1h 24mn\nBit rate mode : Constant\nBit rate : 448 Kbps\nChannel(s) : 6 channels\nChannel positions : Front: L C R, Surround: L R, LFE\nSampling rate : 48.0 KHz\nStream size : 271 MiB (23%)\nAlignment : Split accross interleaves\nInterleave, duration : 42 ms (1.00 video frame)\nInterleave, preload duration : 500 ms","torrent":{"xt":"urn:btih:6342dc6fd18d81200e0226162b763f217648316e","amp;dn":"Blood+Night+The+Legend+Of+Mary+Hatchet+2009+BRRip+Feel-Free","amp;tr":["udp%3A%2F%2Ftracker.openbittorrent.com%3A80","udp%3A%2F%2Fopen.demonii.com%3A1337","udp%3A%2F%2Ftracker.coppersurfer.tk%3A6969","udp%3A%2F%2Fexodus.desync.com%3A6969"],"infoHash":"6342dc6fd18d81200e0226162b763f217648316e","infoHashBuffer":{"type":"Buffer","data":[99,66,220,111,209,141,129,32,14,2,38,22,43,118,63,33,118,72,49,110]},"announce":[],"urlList":[]}}